<svg class="login--svg d-b" xmlns="http://www.w3.org/2000/svg" width="365.1" height="365.1" viewBox="0 0 365.1 365.1"><style>.st0{fill:#422b26}.st1{fill:#fcfc33}.st2{fill:#edcccc}.st3{fill:#905952}.st4{fill:#f7e201}</style><path class="st0" d="M182.2 0c101.7 0 182.9 81.6 182.9 183.8 0 100.2-82.3 181.3-184 181.2C80.9 365 0 282.7 0 181 0 81.7 82.3 0 182.2 0zM353 182.5c0-93.6-76.2-170.3-169.2-170.4C88.9 12 12.1 87.8 12.1 181.6c0 94.7 75.8 171.4 169.7 171.4 94.9 0 171.2-76 171.2-170.5z"/><path class="st1" d="M353 182.5C353 277 276.7 353 181.8 353 87.9 353 12 276.3 12.1 181.6 12.1 87.8 88.9 12 183.7 12.1c93.1.1 169.3 76.8 169.3 170.4zm-102.8 58.6c4.8-7.6 8.1-15.4 9.4-23.9.4-2.7 1.8-2.2 3.5-1.4 4.8 2.1 9.9 2.7 15.1 3.2 21.2 1.9 37.5-9.9 41.2-30 2.7-14.7-1.5-27.6-10.9-39-7.1-8.7-15.7-15.9-24.3-22.9-11.9-9.7-19.8-21.8-24.8-36.1-2.8-8.2-4.9-16.6-8.6-24.4-4.4-9.3-11.8-12.1-20.9-7.8-2.3 1.1-3.2.2-4.5-1.2-6.3-6.8-14.2-10.8-23.1-13.1-10.2-2.5-20.5-2.5-30.8-1.3-12.3 1.4-23.2 6-31.6 15.4-1.9 2.1-3 .8-4.6 0-7.5-3.8-15.1-1.7-19.4 5.5-1.8 3-3.2 6.2-4.4 9.5-3.1 8.1-5.9 16.3-8.9 24.4-5.2 14.3-13.3 26.4-25.7 35.4-4.8 3.5-9.4 7.4-13.9 11.4-9.5 8.4-17 18.1-17.8 31.3-1.2 19.2 6.4 38.2 29.8 42.3 10.8 1.9 21.4.7 31.4-4.5 1.6 8.8 4.1 16.9 8.7 24.2 1.9 2.9.4 3.2-2 3.5-5.8.7-11.5 1.9-17.1 3.6-5.1 1.5-8.4 4.7-10.1 9.5-4.2 12.2-5.1 24.7-2.2 37.4.9 4.1 3.2 7.1 6.9 9.3 10.5 6.3 21.6 11 33.4 14.2 29.4 7.9 59.2 8.6 89.2 5.6 22-2.2 43.1-7.9 62.4-19.3 4.4-2.6 7-6 7.9-10.8 2.4-12.2 1.6-24.1-2.3-35.9-1.7-5-4.9-8.2-10.1-9.3-6.7-1.7-13.5-3.2-20.9-4.8z"/><path class="st0" d="M250.2 241.1c7.4 1.6 14.2 3.1 21 4.6 5.2 1.1 8.5 4.3 10.1 9.3 3.9 11.8 4.7 23.7 2.3 35.9-1 4.8-3.6 8.3-7.9 10.8-19.3 11.4-40.4 17.1-62.4 19.3-30 3-59.9 2.3-89.2-5.6-11.8-3.2-22.9-7.9-33.4-14.2-3.7-2.2-6-5.2-6.9-9.3-2.8-12.7-2-25.1 2.2-37.4 1.7-4.8 5-8 10.1-9.5 5.6-1.6 11.3-2.9 17.1-3.6 2.4-.3 3.9-.6 2-3.5-4.6-7.3-7-15.4-8.7-24.2-10 5.2-20.6 6.4-31.4 4.5-23.5-4.1-31-23.2-29.8-42.3.8-13.2 8.3-22.9 17.8-31.3 4.5-4 9.1-7.9 13.9-11.4 12.4-9 20.5-21.2 25.7-35.4 3-8.1 5.8-16.3 8.9-24.4 1.2-3.3 2.7-6.5 4.4-9.5 4.3-7.2 11.9-9.2 19.4-5.5 1.5.8 2.7 2.1 4.6 0 8.4-9.4 19.3-13.9 31.6-15.4 10.3-1.2 20.6-1.2 30.8 1.3 8.9 2.2 16.8 6.3 23.1 13.1 1.3 1.4 2.2 2.3 4.5 1.2 9.1-4.4 16.5-1.5 20.9 7.8 3.7 7.8 5.8 16.3 8.6 24.4 5 14.3 12.9 26.5 24.8 36.1 8.6 7 17.2 14.2 24.3 22.9 9.4 11.4 13.5 24.3 10.9 39-3.7 20.1-20 31.9-41.2 30-5.1-.5-10.3-1.1-15.1-3.2-1.7-.7-3.1-1.3-3.5 1.4-1.4 8.7-4.7 16.5-9.5 24.1zm-124.4-91.8c-3.8 2.8-6.5 6-8.4 10-5 10.7-8 21.9-8.6 33.6-1.4 28.4 10.5 53.6 41.4 63.7 22.8 7.4 45.6 7 68.1-1.2 20.2-7.3 32.9-21.6 36.9-42.9 3.2-17 .6-33.5-6.1-49.3-2.7-6.4-5-13.2-12.5-16.1 2.3-1.5 3.9 1.2 5.9-.2-.2-.8-.2-1.6-.5-2.4-6.2-21.7-9.5-43.9-11.4-66.3-1-12.4-6.6-20.6-18.3-24.7-18-6.4-36.3-6.2-54.5-1.8-14.3 3.5-23.1 11.7-23.9 27.7-.7 15.6-3.3 31.1-6.6 46.4-1.7 7.9-3.8 15.7-5.7 23.4 1.6.5 2.4-1.2 4.2.1zm-45.7 62.3c7.5.2 14.4-1.6 21.2-4.8 3.1-1.5 4.4-3.3 4.3-6.9-.3-11.3 1.4-22.4 6.2-32.5 10.2-21.8 14.3-45.1 17.9-68.6 1.5-9.8 1.5-19.9 3.9-29.6 1.1-4.6.5-5.6-4.1-5.8-2.9-.1-5.1.9-7.2 2.8-4.4 3.9-6.5 9.2-8.6 14.5-3.4 8.8-5.8 18.1-9.7 26.7-7.6 16.9-21.6 28.5-35.4 40-8.1 6.8-15.8 13.6-18.3 24.6-2.7 11.7-3 22.9 6.4 32 6.4 6.3 14.8 7.5 23.4 7.6zm204.4 0c1.5 0 3 .1 4.5 0 13.3-.6 23.5-7.4 26.1-18.5 3.7-15.2 0-28.7-11.5-39.6-5.4-5.1-11.2-9.9-16.8-14.8-14.5-12.9-26.3-27.6-31.8-46.7-2.2-7.6-5-15.2-9.4-22-2.6-4-5.7-7-10.9-6.4-2.5.2-3.6 1.2-3 3.9 3.2 13.3 3.3 27 5.6 40.4 3.1 17.7 6 35.4 13.3 52 5.6 12.6 9.9 25.4 9.9 39.3 0 5.6 2.9 8.5 8.2 10 5.4 1.2 10.4 2.8 15.8 2.4zm-176.7 79.6c.6 1.5 1.3 2.5 1.3 3.5.3 6.7 5.2 8.6 10.4 10.3 1.3.4 2.7.8 3.7-.4 1-1.3.3-2.5-.5-3.6-1.6-2.4-2-5.3-2.9-7.9-1.2-3.7-.9-6.3 4-5.7 1.7.2 3.4-.2 2.5-2.3-1.2-2.9-4.2-3.6-6.9-4.4-1.9-.6-3.9-1-4.7 1.9-.4 1.6-2.2 1.6-3.4 1.1-1.5-.7-.5-2-.1-3 1.1-2.6 2.1-5.2 3.4-7.8 1-1.9 1.4-3.7-1.3-4.1-3.9-.5-8.1-2.9-11.8.6-.1.1 0 .6.1.9 2.5 8.4-2.6 14.3-7.2 19.8-2.3 2.7-1.6 3.5.4 4.8 1.5 1 3.2 1.7 4.9 2.3 5.4 2.1 6.1 1.6 6.9-4.1.2-.4.7-.9 1.2-1.9zm66.6 14c0-1.6-.1-2.3 0-2.9.2-1.9-.2-4.5 2.6-4.5 2.7 0 2.8 2.5 2.8 4.5 0 2.8.3 5.7-1.2 8.3-.7 1.2-.6 2.4.7 2.9 3.7 1.5 7.5 1 11.2-.1 1.1-.3 1.7-1.5 1.1-2.4-2.6-3.6-1.5-7.7-2-11.6-1-8.3-6.1-10.7-13.1-5.9-1.1.8-1.4 1.4-2.4-.4-1.4-2.6-11.2-.9-12.3 1.9-.2.4-.2 1.1 0 1.4 3.8 4.7 2.5 9.4.2 14.2-.6 1.2-.1 2.2.7 2.5 3.6 1.7 7.6 1.6 11.2.2 3.6-1.4.3-4 .5-6 .2-1 0-2 0-2.1zm53.1-16.7c-2.9-3.1-11.6-.5-12.8 3.5-.2.7-.2 1.4.4 1.8 4.6 3.5 4.8 8.2 3.8 13.2-.3 1.2.1 1.9 1.1 2.4 2.1 1.1 10.2-1 11.7-2.9.9-1.2.5-2.1-.3-3-2.1-2.4-2.3-5.4-3-8.3-.3-1.5-.5-3.1 1.4-3.7 2-.6 3.2.6 3.8 2.3 1 3 2 5.9 1.2 9.1-.3 1.3-.4 2.5 1.2 2.7 4 .5 7.5-.8 10.9-2.8 1.1-.7 1.5-2.1.5-3-2.9-2.3-3-5.8-4.1-8.8-1.2-3.5-2.2-7.2-6.6-7.9-4.4-.6-7.4 1.4-9.2 5.4zm36.5-15.8c-7-.1-14.3 6.4-14.5 13.1-.2 6.3 4.3 11.5 10.4 11.7 7.5.3 15.6-6.9 15.6-13.9 0-5.6-5.4-10.8-11.5-10.9zm-123.6 24.7c-6.3-.1-10 2.4-9.8 6.6.1 3.5 4.2 6.9 8.2 6.2 3.1-.5 5.4-.7 8.1 1.5 2.1 1.7 4.8.4 6.9-1.2.9-.6 2.3-1.8 1.3-2.8-2.5-2.4-1.2-4.9-.8-7.4.7-4 1.1-8-3.3-10.6-4.1-2.4-12.2-2.3-15.3.2-1.4 1.1-1.9 2.4-1.1 3.9.8 1.4 2.2 1.4 3.5.9 1.2-.5 2.2-1.4 3.3-2.2 1-.7 2-1.5 3.1-.4.9.9 1 2.1.6 3.3-.3 1.1-.7 2.3-2.3 2.1-.8-.1-1.6-.1-2.4-.1zm62.7 15.3c3.1-.3 6.7 0 8.9-2.4 2.4-2.7-2.1-3.5-2.2-5.7 0-.8-.2-1.6-.3-2.5l-1.2-9.9c-.2-1.4-.2-3.3-2.5-2.9-3.3.6-6.5 1.6-9.1 3.7-1.4 1.1-1.5 2.2.1 3.6 3.3 2.8 3.2 6.9 2.4 10.5-1.3 5.4-1.3 5.7 3.9 5.6zm-4.1-24.2c2.7-1.1 7-.6 7.6-5.2.3-2.1-1.9-2.8-3.5-2.5-3.4.6-7.4.9-8.3 5-.5 2.2 1.8 2.7 4.2 2.7z"/><path class="st2" d="M125.8 149.3c-1.9-1.3-2.7.4-4.1 0 1.9-7.8 4-15.5 5.7-23.4 3.3-15.3 5.9-30.8 6.6-46.4.8-16.1 9.6-24.3 23.9-27.7 18.2-4.4 36.5-4.5 54.5 1.8 11.7 4.1 17.2 12.3 18.3 24.7 1.8 22.4 5.1 44.6 11.4 66.3.2.8.3 1.6.5 2.4-2 1.4-3.5-1.3-5.9.2 7.5 2.9 9.8 9.7 12.5 16.1 6.8 15.9 9.3 32.3 6.1 49.3-4 21.3-16.7 35.6-36.9 42.9-22.5 8.1-45.3 8.5-68.1 1.2-30.9-10-42.8-35.2-41.4-63.7.6-11.7 3.5-22.9 8.6-33.6 1.9-4.2 4.5-7.3 8.3-10.1zm49.8 85.2l5.1 15.9c.9-5.5 1.1-10.7-2.3-15.3 4 .3 7.5-1.2 10.9-2.9 13.4-6.6 21.6-17.8 27.1-31.3 3.2-7.8 2.4-9.6-5.6-12.4-22.4-7.9-44.4-5.8-66.4 1.9-3.7 1.3-3 3.9-2.5 6.5 4.4 18.7 15.9 30.9 33.7 37.6zm-16-173.4c-2 .2-4 .2-5.9.7-4.5 1.1-8.5 3.2-9.9 8.1-.6 2.1-.7 5.2 2.9 3.6 5.8-2.7 11.3-1.6 17.1-.5 1 .2 2.1 1.1 2.8-.7 2.5-6.1-.6-11.2-7-11.2zm37.8 5.4c.1 6.9.1 6.9 6 5.8 4.6-.8 9.2-1.3 13.6.9 3.1 1.5 4-.2 3.5-2.9-.5-3-2.5-5-5-6.5-3.8-2.3-8.1-2.5-12.5-2.6-4.4-.1-6.7 1.2-5.6 5.3zM139 120.3c13.5-9.3 18.5 2.7 25.9 10.5-2.5-12.4-8.3-19.7-21.9-18.3 1.6-1.7 2.4-2.6 3.8-4.1-6.3 2-8.7 6-7.8 11.9zm64.1 9.2c2.4-.1 2.6-2.3 3.6-3.6 2.7-3.4 5.8-6.4 9.8-8.3 4.5-2.1 8.5-1.2 11.9 3.6.3-8.8-2.1-12.4-7.4-12.1 1.2 1.3 3.5 1.5 3.4 3.9-11.5-2.1-18 2.9-21.3 16.5z"/><path class="st3" d="M80.1 211.6c-8.6-.2-17.1-1.3-23.6-7.6-9.4-9.1-9.1-20.3-6.4-32 2.5-11 10.2-17.8 18.3-24.6 13.8-11.6 27.8-23.1 35.4-40 3.9-8.6 6.3-17.9 9.7-26.7 2-5.2 4.2-10.5 8.6-14.5 2.1-1.9 4.4-2.9 7.2-2.8 4.7.2 5.3 1.2 4.1 5.8-2.4 9.7-2.4 19.7-3.9 29.6-3.5 23.5-7.6 46.8-17.9 68.6-4.8 10.2-6.5 21.3-6.2 32.5.1 3.6-1.2 5.3-4.3 6.9-6.5 3.3-13.5 5.1-21 4.8zm204.4 0c-5.4.4-10.5-1.2-15.6-2.6-5.4-1.5-8.3-4.4-8.2-10 0-13.9-4.3-26.7-9.9-39.3-7.3-16.5-10.2-34.3-13.3-52-2.4-13.4-2.5-27.1-5.6-40.4-.7-2.7.5-3.6 3-3.9 5.2-.5 8.4 2.4 10.9 6.4 4.4 6.8 7.2 14.3 9.4 22 5.5 19.1 17.2 33.8 31.8 46.7 5.6 5 11.4 9.7 16.8 14.8 11.5 10.9 15.1 24.4 11.5 39.6-2.7 11.1-12.8 17.9-26.1 18.5-1.7.2-3.2.2-4.7.2z"/><path class="st4" d="M107.8 291.2c-.6 1-1.1 1.5-1.1 2.1-.8 5.8-1.5 6.2-6.9 4.1-1.7-.7-3.5-1.3-4.9-2.3-1.9-1.3-2.7-2.1-.4-4.8 4.6-5.5 9.7-11.5 7.2-19.8-.1-.3-.2-.8-.1-.9 3.7-3.5 7.8-1.1 11.8-.6 2.7.3 2.3 2.1 1.3 4.1-1.3 2.5-2.3 5.2-3.4 7.8-.4 1-1.4 2.3.1 3 1.2.5 2.9.6 3.4-1.1.8-2.9 2.9-2.5 4.7-1.9 2.7.8 5.7 1.5 6.9 4.4.8 2.1-.8 2.5-2.5 2.3-4.9-.6-5.3 2-4 5.7.9 2.7 1.2 5.5 2.9 7.9.8 1.1 1.6 2.3.5 3.6-1 1.2-2.4.9-3.7.4-5.2-1.7-10.1-3.6-10.4-10.3-.1-1.2-.8-2.2-1.4-3.7zm66.6 14c0 .1.2 1.1.1 2.1-.2 2 3.1 4.6-.5 6-3.6 1.4-7.5 1.4-11.2-.2-.8-.4-1.3-1.3-.7-2.5 2.4-4.7 3.6-9.5-.2-14.2-.2-.3-.2-1 0-1.4 1.1-2.8 10.9-4.5 12.3-1.9 1 1.8 1.3 1.1 2.4.4 7-4.8 12.1-2.3 13.1 5.9.5 3.9-.6 8 2 11.6.6.9-.1 2.1-1.1 2.4-3.7 1.1-7.5 1.6-11.2.1-1.3-.5-1.4-1.8-.7-2.9 1.5-2.6 1.2-5.5 1.2-8.3 0-2-.1-4.5-2.8-4.5-2.9 0-2.4 2.6-2.6 4.5-.2.7-.1 1.3-.1 2.9zm53.1-16.7c1.8-3.9 4.8-6 9.1-5.4 4.4.6 5.4 4.4 6.6 7.9 1.1 3.1 1.2 6.5 4.1 8.8 1.1.9.7 2.3-.5 3-3.3 2-6.9 3.3-10.9 2.8-1.6-.2-1.5-1.4-1.2-2.7.8-3.2-.2-6.2-1.2-9.1-.6-1.7-1.8-2.9-3.8-2.3-1.9.6-1.7 2.2-1.4 3.7.7 2.9.9 5.9 3 8.3.9 1 1.3 1.8.3 3-1.5 1.9-9.6 4-11.7 2.9-1-.5-1.3-1.2-1.1-2.4 1-5 .8-9.8-3.8-13.2-.6-.4-.6-1.1-.4-1.8 1.3-4 10-6.6 12.9-3.5zm36.5-15.8c6 .1 11.4 5.3 11.4 10.9 0 7-8.1 14.2-15.6 13.9-6-.2-10.6-5.4-10.4-11.7.4-6.7 7.6-13.3 14.6-13.1zm-4.3 6.8c-1.2.2-2.2 1.1-1.7 2.3 1.1 3.3 2.8 6.3 6 8.2 1.2.7 2.2.3 2.7-1.1.8-2.4-4.4-9.5-7-9.4zm-119.3 17.9c.8 0 1.7.1 2.5.2 1.6.2 2-.9 2.3-2.1.4-1.2.3-2.4-.6-3.3-1.1-1.1-2.1-.3-3.1.4-1.1.8-2.1 1.6-3.3 2.2-1.3.6-2.7.5-3.5-.9-.8-1.5-.3-2.8 1.1-3.9 3.1-2.5 11.3-2.5 15.3-.2 4.4 2.6 3.9 6.5 3.3 10.6-.4 2.5-1.7 5 .8 7.4 1 1-.4 2.1-1.3 2.8-2.1 1.6-4.8 3-6.9 1.2-2.7-2.3-5.1-2-8.1-1.5-4.1.7-8.1-2.7-8.2-6.2-.3-4.3 3.3-6.8 9.7-6.7zm1.6 8.3c1.7-.4 1.7-1.8 1.9-3.1.1-.9-.4-1.7-1.4-1.5-1.5.2-2.3 1.2-2.3 2.7 0 1.2.6 1.9 1.8 1.9zm61.1 7c-5.2.2-5.2-.2-4-5.6.8-3.6.9-7.7-2.4-10.5-1.6-1.4-1.5-2.5-.1-3.6 2.7-2.1 5.9-3.1 9.1-3.7 2.3-.4 2.3 1.5 2.5 2.9.5 3.3.8 6.6 1.2 9.9.1.8.3 1.6.3 2.5.1 2.2 4.7 3 2.2 5.7-2.2 2.4-5.7 2.1-8.8 2.4zm-4.1-24.2c-2.4 0-4.7-.5-4.2-2.8.9-4.1 4.9-4.4 8.3-5 1.6-.3 3.8.4 3.5 2.5-.6 4.7-4.9 4.3-7.6 5.3z"/><path class="st0" d="M175.6 234.5c-17.7-6.7-29.3-19-33.6-37.7-.6-2.5-1.3-5.1 2.5-6.5 22-7.7 44-9.8 66.4-1.9 8 2.9 8.8 4.6 5.6 12.4-5.5 13.5-13.7 24.7-27.1 31.3-3.4 1.7-7 3.2-10.9 2.9-.9-.8-1.9-.6-2.9-.5zm-16-173.4c6.4 0 9.5 5.1 6.9 11.1-.8 1.8-1.8.9-2.8.7-5.7-1.1-11.3-2.1-17.1.5-3.5 1.6-3.5-1.5-2.9-3.6 1.4-4.8 5.4-6.9 9.9-8.1 1.9-.4 4-.4 6-.6zm37.8 5.4c-1.1-4.1 1.3-5.4 5.7-5.3 4.4.1 8.6.3 12.5 2.6 2.5 1.5 4.5 3.5 5 6.5.5 2.8-.4 4.5-3.5 2.9-4.5-2.2-9-1.8-13.6-.9-6.1 1.2-6.1 1.1-6.1-5.8zM139 120.3c-.9-5.9 1.5-9.9 7.8-11.8-1.4 1.5-2.2 2.4-3.8 4.1 13.7-1.4 19.4 5.8 21.9 18.3-7.4-7.9-12.3-19.9-25.9-10.6zm64.1 9.2c3.3-13.6 9.8-18.6 21.3-16.6.1-2.4-2.2-2.6-3.4-3.9 5.3-.3 7.7 3.3 7.4 12.1-3.4-4.7-7.4-5.7-11.9-3.6-4 1.9-7 4.9-9.8 8.3-1 1.4-1.3 3.6-3.6 3.7z"/><path class="st3" d="M175.6 234.5c1-.1 2.1-.4 2.8.6 3.4 4.5 3.1 9.8 2.3 15.3l-5.1-15.9z"/><path class="st0" d="M259.7 279.5c2.6-.1 7.8 7 7 9.4-.5 1.4-1.6 1.7-2.7 1.1-3.2-1.8-4.8-4.9-6-8.2-.5-1.2.5-2.1 1.7-2.3zM142 305.7c-1.2-.1-1.8-.8-1.8-1.9 0-1.5.8-2.5 2.3-2.7 1-.1 1.5.7 1.4 1.5-.2 1.3-.2 2.8-1.9 3.1z"/></svg>